%TF.GenerationSoftware,KiCad,Pcbnew,8.0.8*%
%TF.CreationDate,2026-02-11T18:54:28+05:30*%
%TF.ProjectId,Final_Integration,46696e61-6c5f-4496-9e74-656772617469,rev?*%
%TF.SameCoordinates,Original*%
%TF.FileFunction,Soldermask,Top*%
%TF.FilePolarity,Negative*%
%FSLAX46Y46*%
G04 Gerber Fmt 4.6, Leading zero omitted, Abs format (unit mm)*
G04 Created by KiCad (PCBNEW 8.0.8) date 2026-02-11 18:54:28*
%MOMM*%
%LPD*%
G01*
G04 APERTURE LIST*
G04 Aperture macros list*
%AMRoundRect*
0 Rectangle with rounded corners*
0 $1 Rounding radius*
0 $2 $3 $4 $5 $6 $7 $8 $9 X,Y pos of 4 corners*
0 Add a 4 corners polygon primitive as box body*
4,1,4,$2,$3,$4,$5,$6,$7,$8,$9,$2,$3,0*
0 Add four circle primitives for the rounded corners*
1,1,$1+$1,$2,$3*
1,1,$1+$1,$4,$5*
1,1,$1+$1,$6,$7*
1,1,$1+$1,$8,$9*
0 Add four rect primitives between the rounded corners*
20,1,$1+$1,$2,$3,$4,$5,0*
20,1,$1+$1,$4,$5,$6,$7,0*
20,1,$1+$1,$6,$7,$8,$9,0*
20,1,$1+$1,$8,$9,$2,$3,0*%
G04 Aperture macros list end*
%ADD10C,6.404000*%
%ADD11RoundRect,0.102000X0.685000X0.685000X-0.685000X0.685000X-0.685000X-0.685000X0.685000X-0.685000X0*%
%ADD12C,1.574000*%
%ADD13RoundRect,0.102000X-0.762000X-0.762000X0.762000X-0.762000X0.762000X0.762000X-0.762000X0.762000X0*%
%ADD14C,1.728000*%
%ADD15RoundRect,0.250000X0.250000X0.475000X-0.250000X0.475000X-0.250000X-0.475000X0.250000X-0.475000X0*%
%ADD16RoundRect,0.102000X-1.100000X0.750000X-1.100000X-0.750000X1.100000X-0.750000X1.100000X0.750000X0*%
%ADD17RoundRect,0.250000X0.262500X0.450000X-0.262500X0.450000X-0.262500X-0.450000X0.262500X-0.450000X0*%
%ADD18RoundRect,0.250000X-0.250000X-0.475000X0.250000X-0.475000X0.250000X0.475000X-0.250000X0.475000X0*%
%ADD19C,2.134400*%
%ADD20C,4.204000*%
%ADD21RoundRect,0.102000X0.600000X0.175000X-0.600000X0.175000X-0.600000X-0.175000X0.600000X-0.175000X0*%
%ADD22RoundRect,0.102000X0.850000X0.750000X-0.850000X0.750000X-0.850000X-0.750000X0.850000X-0.750000X0*%
%ADD23RoundRect,0.102000X2.750000X-0.500000X2.750000X0.500000X-2.750000X0.500000X-2.750000X-0.500000X0*%
%ADD24RoundRect,0.102000X1.500000X-0.800000X1.500000X0.800000X-1.500000X0.800000X-1.500000X-0.800000X0*%
%ADD25RoundRect,0.250000X0.475000X-0.250000X0.475000X0.250000X-0.475000X0.250000X-0.475000X-0.250000X0*%
%ADD26RoundRect,0.102000X-1.600000X-0.800000X1.600000X-0.800000X1.600000X0.800000X-1.600000X0.800000X0*%
%ADD27RoundRect,0.102000X0.800000X-1.600000X0.800000X1.600000X-0.800000X1.600000X-0.800000X-1.600000X0*%
%ADD28RoundRect,0.102000X1.858000X-1.858000X1.858000X1.858000X-1.858000X1.858000X-1.858000X-1.858000X0*%
%ADD29C,3.920000*%
%ADD30O,2.804000X1.504000*%
%ADD31C,4.000000*%
%ADD32C,1.600000*%
%ADD33RoundRect,0.102000X-1.750000X0.500000X-1.750000X-0.500000X1.750000X-0.500000X1.750000X0.500000X0*%
%ADD34RoundRect,0.102000X-1.700000X0.750000X-1.700000X-0.750000X1.700000X-0.750000X1.700000X0.750000X0*%
G04 APERTURE END LIST*
D10*
%TO.C,*%
X121955000Y-114755000D03*
%TD*%
%TO.C,*%
X63955000Y-163725000D03*
%TD*%
D11*
%TO.C,J1*%
X105145000Y-165155000D03*
D12*
X102605000Y-165155000D03*
X100065000Y-165155000D03*
X97525000Y-165155000D03*
X94985000Y-165155000D03*
X92445000Y-165155000D03*
X89905000Y-165155000D03*
X87365000Y-165155000D03*
%TD*%
D10*
%TO.C,*%
X63925000Y-114705000D03*
%TD*%
%TO.C,*%
X121945000Y-163705000D03*
%TD*%
D13*
%TO.C,J2*%
X68785000Y-116055000D03*
D14*
X68785000Y-113515000D03*
X71325000Y-116055000D03*
X71325000Y-113515000D03*
X73865000Y-116055000D03*
X73865000Y-113515000D03*
X76405000Y-116055000D03*
X76405000Y-113515000D03*
X78945000Y-116055000D03*
X78945000Y-113515000D03*
X81485000Y-116055000D03*
X81485000Y-113515000D03*
X84025000Y-116055000D03*
X84025000Y-113515000D03*
X86565000Y-116055000D03*
X86565000Y-113515000D03*
X89105000Y-116055000D03*
X89105000Y-113515000D03*
X91645000Y-116055000D03*
X91645000Y-113515000D03*
X94185000Y-116055000D03*
X94185000Y-113515000D03*
X96725000Y-116055000D03*
X96725000Y-113515000D03*
X99265000Y-116055000D03*
X99265000Y-113515000D03*
X101805000Y-116055000D03*
X101805000Y-113515000D03*
X104345000Y-116055000D03*
X104345000Y-113515000D03*
X106885000Y-116055000D03*
X106885000Y-113515000D03*
X109425000Y-116055000D03*
X109425000Y-113515000D03*
X111965000Y-116055000D03*
X111965000Y-113515000D03*
X114505000Y-116055000D03*
X114505000Y-113515000D03*
X117045000Y-116055000D03*
X117045000Y-113515000D03*
%TD*%
%TO.C,A1*%
X117528750Y-149925000D03*
X87048750Y-134685000D03*
X76888750Y-139765000D03*
X120068750Y-149925000D03*
X120068750Y-134685000D03*
X117528750Y-134685000D03*
X114988750Y-134685000D03*
X112448750Y-134685000D03*
X109908750Y-134685000D03*
X107368750Y-134685000D03*
X104828750Y-134685000D03*
X102288750Y-134685000D03*
X99748750Y-134685000D03*
X97208750Y-134685000D03*
X94668750Y-134685000D03*
X92128750Y-134685000D03*
X89588750Y-134685000D03*
X89588750Y-149925000D03*
X92128750Y-149925000D03*
X94668750Y-149925000D03*
X97208750Y-149925000D03*
X99748750Y-149925000D03*
X102288750Y-149925000D03*
X104828750Y-149925000D03*
X107368750Y-149925000D03*
X109908750Y-149925000D03*
X112448750Y-149925000D03*
X114988750Y-149925000D03*
X84508750Y-134685000D03*
X81968750Y-134685000D03*
X79428750Y-134685000D03*
X76888750Y-134685000D03*
X74348750Y-134685000D03*
X71808750Y-134685000D03*
X69268750Y-134685000D03*
X66728750Y-134685000D03*
X64188750Y-134685000D03*
X64188750Y-149925000D03*
X66728750Y-149925000D03*
X69268750Y-149925000D03*
X71808750Y-149925000D03*
X74348750Y-149925000D03*
X76888750Y-149925000D03*
X79428750Y-149925000D03*
X81968750Y-149925000D03*
X84508750Y-149925000D03*
X122608750Y-134685000D03*
X87048750Y-149925000D03*
X76888750Y-137225000D03*
X122608750Y-149925000D03*
%TD*%
D15*
%TO.C,C4*%
X102270000Y-120400000D03*
X100370000Y-120400000D03*
%TD*%
%TO.C,C3*%
X102270000Y-122530000D03*
X100370000Y-122530000D03*
%TD*%
D16*
%TO.C,L1*%
X112300000Y-156325000D03*
X112300000Y-162725000D03*
%TD*%
D15*
%TO.C,C1*%
X118905000Y-153905000D03*
X117005000Y-153905000D03*
%TD*%
D17*
%TO.C,R1*%
X133667500Y-163905000D03*
X131842500Y-163905000D03*
%TD*%
D18*
%TO.C,C5*%
X100370000Y-124670000D03*
X102270000Y-124670000D03*
%TD*%
D19*
%TO.C,U1*%
X127335000Y-140660000D03*
X127335000Y-143200000D03*
X127335000Y-145740000D03*
X127335000Y-148280000D03*
X127335000Y-150820000D03*
X127335000Y-153360000D03*
X145115000Y-150820000D03*
X145115000Y-148280000D03*
X145115000Y-145740000D03*
X145115000Y-143200000D03*
D20*
X128605000Y-136215000D03*
X128605000Y-157805000D03*
X143845000Y-157805000D03*
X143845000Y-136215000D03*
%TD*%
D21*
%TO.C,IC1*%
X97480000Y-124780000D03*
X97480000Y-124130000D03*
X97480000Y-123480000D03*
X97480000Y-122830000D03*
X97480000Y-122180000D03*
X97480000Y-121530000D03*
X97480000Y-120880000D03*
X97480000Y-120230000D03*
X91630000Y-120230000D03*
X91630000Y-120880000D03*
X91630000Y-121530000D03*
X91630000Y-122180000D03*
X91630000Y-122830000D03*
X91630000Y-123480000D03*
X91630000Y-124130000D03*
X91630000Y-124780000D03*
%TD*%
D15*
%TO.C,C6*%
X88640000Y-120170000D03*
X86740000Y-120170000D03*
%TD*%
D17*
%TO.C,R2*%
X140667500Y-163705000D03*
X138842500Y-163705000D03*
%TD*%
D22*
%TO.C,LS1*%
X140735000Y-113815000D03*
X140735000Y-123715000D03*
%TD*%
D23*
%TO.C,J3*%
X67405000Y-128705000D03*
X67405000Y-126705000D03*
X67405000Y-124705000D03*
X67405000Y-122705000D03*
D24*
X65155000Y-131105000D03*
X65155000Y-120305000D03*
%TD*%
D15*
%TO.C,C7*%
X88650000Y-122310000D03*
X86750000Y-122310000D03*
%TD*%
D25*
%TO.C,C8*%
X133095000Y-119605000D03*
X133095000Y-117705000D03*
%TD*%
D15*
%TO.C,C2*%
X111580000Y-153755000D03*
X109680000Y-153755000D03*
%TD*%
D26*
%TO.C,C1*%
X124260000Y-64880000D03*
X129260000Y-64880000D03*
%TD*%
D27*
%TO.C,C2*%
X127560000Y-77890000D03*
X127560000Y-72890000D03*
%TD*%
D10*
%TO.C,*%
X121950000Y-55310000D03*
%TD*%
D28*
%TO.C,J4*%
X126155000Y-86619250D03*
D29*
X126155000Y-93819250D03*
D30*
X132155000Y-96969250D03*
X132155000Y-83469250D03*
%TD*%
D10*
%TO.C,*%
X63950000Y-104280000D03*
%TD*%
D31*
%TO.C,P1*%
X111690000Y-94270000D03*
X80300000Y-77550000D03*
D32*
X75700000Y-94810000D03*
X75800000Y-76470000D03*
X116390000Y-76340000D03*
X116240000Y-94810000D03*
%TD*%
D33*
%TO.C,S2*%
X139775000Y-71250000D03*
X139775000Y-69250000D03*
X139775000Y-67250000D03*
D34*
X145525000Y-73600000D03*
X145525000Y-64900000D03*
%TD*%
D10*
%TO.C,*%
X121950000Y-104290000D03*
%TD*%
D11*
%TO.C,J6*%
X105160000Y-105690000D03*
D12*
X102620000Y-105690000D03*
X100080000Y-105690000D03*
X97540000Y-105690000D03*
X95000000Y-105690000D03*
X92460000Y-105690000D03*
X89920000Y-105690000D03*
X87380000Y-105690000D03*
%TD*%
D13*
%TO.C,J3*%
X68800000Y-56600000D03*
D14*
X68800000Y-54060000D03*
X71340000Y-56600000D03*
X71340000Y-54060000D03*
X73880000Y-56600000D03*
X73880000Y-54060000D03*
X76420000Y-56600000D03*
X76420000Y-54060000D03*
X78960000Y-56600000D03*
X78960000Y-54060000D03*
X81500000Y-56600000D03*
X81500000Y-54060000D03*
X84040000Y-56600000D03*
X84040000Y-54060000D03*
X86580000Y-56600000D03*
X86580000Y-54060000D03*
X89120000Y-56600000D03*
X89120000Y-54060000D03*
X91660000Y-56600000D03*
X91660000Y-54060000D03*
X94200000Y-56600000D03*
X94200000Y-54060000D03*
X96740000Y-56600000D03*
X96740000Y-54060000D03*
X99280000Y-56600000D03*
X99280000Y-54060000D03*
X101820000Y-56600000D03*
X101820000Y-54060000D03*
X104360000Y-56600000D03*
X104360000Y-54060000D03*
X106900000Y-56600000D03*
X106900000Y-54060000D03*
X109440000Y-56600000D03*
X109440000Y-54060000D03*
X111980000Y-56600000D03*
X111980000Y-54060000D03*
X114520000Y-56600000D03*
X114520000Y-54060000D03*
X117060000Y-56600000D03*
X117060000Y-54060000D03*
%TD*%
D33*
%TO.C,S1*%
X139775000Y-59725000D03*
X139775000Y-57725000D03*
X139775000Y-55725000D03*
D34*
X145525000Y-62075000D03*
X145525000Y-53375000D03*
%TD*%
D10*
%TO.C,*%
X63940000Y-55260000D03*
%TD*%
M02*
