%TF.GenerationSoftware,KiCad,Pcbnew,8.0.8*%
%TF.CreationDate,2026-02-11T18:54:27+05:30*%
%TF.ProjectId,Final_Integration,46696e61-6c5f-4496-9e74-656772617469,rev?*%
%TF.SameCoordinates,Original*%
%TF.FileFunction,Paste,Top*%
%TF.FilePolarity,Positive*%
%FSLAX46Y46*%
G04 Gerber Fmt 4.6, Leading zero omitted, Abs format (unit mm)*
G04 Created by KiCad (PCBNEW 8.0.8) date 2026-02-11 18:54:27*
%MOMM*%
%LPD*%
G01*
G04 APERTURE LIST*
G04 Aperture macros list*
%AMRoundRect*
0 Rectangle with rounded corners*
0 $1 Rounding radius*
0 $2 $3 $4 $5 $6 $7 $8 $9 X,Y pos of 4 corners*
0 Add a 4 corners polygon primitive as box body*
4,1,4,$2,$3,$4,$5,$6,$7,$8,$9,$2,$3,0*
0 Add four circle primitives for the rounded corners*
1,1,$1+$1,$2,$3*
1,1,$1+$1,$4,$5*
1,1,$1+$1,$6,$7*
1,1,$1+$1,$8,$9*
0 Add four rect primitives between the rounded corners*
20,1,$1+$1,$2,$3,$4,$5,0*
20,1,$1+$1,$4,$5,$6,$7,0*
20,1,$1+$1,$6,$7,$8,$9,0*
20,1,$1+$1,$8,$9,$2,$3,0*%
G04 Aperture macros list end*
%ADD10RoundRect,0.250000X0.250000X0.475000X-0.250000X0.475000X-0.250000X-0.475000X0.250000X-0.475000X0*%
%ADD11R,2.200000X1.500000*%
%ADD12RoundRect,0.250000X0.262500X0.450000X-0.262500X0.450000X-0.262500X-0.450000X0.262500X-0.450000X0*%
%ADD13RoundRect,0.250000X-0.250000X-0.475000X0.250000X-0.475000X0.250000X0.475000X-0.250000X0.475000X0*%
%ADD14R,1.200000X0.350000*%
%ADD15R,1.700000X1.500000*%
%ADD16R,5.500000X1.000000*%
%ADD17R,3.000000X1.600000*%
%ADD18RoundRect,0.250000X0.475000X-0.250000X0.475000X0.250000X-0.475000X0.250000X-0.475000X-0.250000X0*%
%ADD19R,3.200000X1.600000*%
%ADD20R,1.600000X3.200000*%
%ADD21R,3.500000X1.000000*%
%ADD22R,3.400000X1.500000*%
G04 APERTURE END LIST*
D10*
%TO.C,C4*%
X102270000Y-120400000D03*
X100370000Y-120400000D03*
%TD*%
%TO.C,C3*%
X102270000Y-122530000D03*
X100370000Y-122530000D03*
%TD*%
D11*
%TO.C,L1*%
X112300000Y-156325000D03*
X112300000Y-162725000D03*
%TD*%
D10*
%TO.C,C1*%
X118905000Y-153905000D03*
X117005000Y-153905000D03*
%TD*%
D12*
%TO.C,R1*%
X133667500Y-163905000D03*
X131842500Y-163905000D03*
%TD*%
D13*
%TO.C,C5*%
X100370000Y-124670000D03*
X102270000Y-124670000D03*
%TD*%
D14*
%TO.C,IC1*%
X97480000Y-124780000D03*
X97480000Y-124130000D03*
X97480000Y-123480000D03*
X97480000Y-122830000D03*
X97480000Y-122180000D03*
X97480000Y-121530000D03*
X97480000Y-120880000D03*
X97480000Y-120230000D03*
X91630000Y-120230000D03*
X91630000Y-120880000D03*
X91630000Y-121530000D03*
X91630000Y-122180000D03*
X91630000Y-122830000D03*
X91630000Y-123480000D03*
X91630000Y-124130000D03*
X91630000Y-124780000D03*
%TD*%
D10*
%TO.C,C6*%
X88640000Y-120170000D03*
X86740000Y-120170000D03*
%TD*%
D12*
%TO.C,R2*%
X140667500Y-163705000D03*
X138842500Y-163705000D03*
%TD*%
D15*
%TO.C,LS1*%
X140735000Y-113815000D03*
X140735000Y-123715000D03*
%TD*%
D16*
%TO.C,J3*%
X67405000Y-128705000D03*
X67405000Y-126705000D03*
X67405000Y-124705000D03*
X67405000Y-122705000D03*
D17*
X65155000Y-131105000D03*
X65155000Y-120305000D03*
%TD*%
D10*
%TO.C,C7*%
X88650000Y-122310000D03*
X86750000Y-122310000D03*
%TD*%
D18*
%TO.C,C8*%
X133095000Y-119605000D03*
X133095000Y-117705000D03*
%TD*%
D10*
%TO.C,C2*%
X111580000Y-153755000D03*
X109680000Y-153755000D03*
%TD*%
D19*
%TO.C,C1*%
X124260000Y-64880000D03*
X129260000Y-64880000D03*
%TD*%
D20*
%TO.C,C2*%
X127560000Y-77890000D03*
X127560000Y-72890000D03*
%TD*%
D21*
%TO.C,S2*%
X139775000Y-71250000D03*
X139775000Y-69250000D03*
X139775000Y-67250000D03*
D22*
X145525000Y-73600000D03*
X145525000Y-64900000D03*
%TD*%
D21*
%TO.C,S1*%
X139775000Y-59725000D03*
X139775000Y-57725000D03*
X139775000Y-55725000D03*
D22*
X145525000Y-62075000D03*
X145525000Y-53375000D03*
%TD*%
M02*
