%TF.GenerationSoftware,KiCad,Pcbnew,8.0.8*%
%TF.CreationDate,2026-02-11T18:54:28+05:30*%
%TF.ProjectId,Final_Integration,46696e61-6c5f-4496-9e74-656772617469,rev?*%
%TF.SameCoordinates,Original*%
%TF.FileFunction,Profile,NP*%
%FSLAX46Y46*%
G04 Gerber Fmt 4.6, Leading zero omitted, Abs format (unit mm)*
G04 Created by KiCad (PCBNEW 8.0.8) date 2026-02-11 18:54:28*
%MOMM*%
%LPD*%
G01*
G04 APERTURE LIST*
%TA.AperFunction,Profile*%
%ADD10C,0.050000*%
%TD*%
G04 APERTURE END LIST*
D10*
X60230000Y-51330000D02*
X148205000Y-51330000D01*
X148205000Y-169435000D01*
X60230000Y-169435000D01*
X60230000Y-51330000D01*
X143875000Y-109987500D02*
X147775000Y-109987500D01*
X147775000Y-110762500D01*
X143875000Y-110762500D01*
X143875000Y-109987500D01*
X124450000Y-110000000D02*
X128350000Y-110000000D01*
X128350000Y-110775000D01*
X124450000Y-110775000D01*
X124450000Y-110000000D01*
X138975000Y-110000000D02*
X142875000Y-110000000D01*
X142875000Y-110775000D01*
X138975000Y-110775000D01*
X138975000Y-110000000D01*
X134150000Y-110000000D02*
X138050000Y-110000000D01*
X138050000Y-110775000D01*
X134150000Y-110775000D01*
X134150000Y-110000000D01*
X129250000Y-110000000D02*
X133150000Y-110000000D01*
X133150000Y-110775000D01*
X129250000Y-110775000D01*
X129250000Y-110000000D01*
X119550000Y-109987500D02*
X123450000Y-109987500D01*
X123450000Y-110762500D01*
X119550000Y-110762500D01*
X119550000Y-109987500D01*
X109700000Y-110000000D02*
X113600000Y-110000000D01*
X113600000Y-110775000D01*
X109700000Y-110775000D01*
X109700000Y-110000000D01*
X104800000Y-110000000D02*
X108700000Y-110000000D01*
X108700000Y-110775000D01*
X104800000Y-110775000D01*
X104800000Y-110000000D01*
X100000000Y-110000000D02*
X103900000Y-110000000D01*
X103900000Y-110775000D01*
X100000000Y-110775000D01*
X100000000Y-110000000D01*
X114525000Y-110000000D02*
X118425000Y-110000000D01*
X118425000Y-110775000D01*
X114525000Y-110775000D01*
X114525000Y-110000000D01*
X90275000Y-109987500D02*
X94175000Y-109987500D01*
X94175000Y-110762500D01*
X90275000Y-110762500D01*
X90275000Y-109987500D01*
X85375000Y-109987500D02*
X89275000Y-109987500D01*
X89275000Y-110762500D01*
X85375000Y-110762500D01*
X85375000Y-109987500D01*
X80575000Y-109987500D02*
X84475000Y-109987500D01*
X84475000Y-110762500D01*
X80575000Y-110762500D01*
X80575000Y-109987500D01*
X95100000Y-109987500D02*
X99000000Y-109987500D01*
X99000000Y-110762500D01*
X95100000Y-110762500D01*
X95100000Y-109987500D01*
X75825000Y-110000000D02*
X79725000Y-110000000D01*
X79725000Y-110775000D01*
X75825000Y-110775000D01*
X75825000Y-110000000D01*
X71000000Y-110000000D02*
X74900000Y-110000000D01*
X74900000Y-110775000D01*
X71000000Y-110775000D01*
X71000000Y-110000000D01*
X66100000Y-110000000D02*
X70000000Y-110000000D01*
X70000000Y-110775000D01*
X66100000Y-110775000D01*
X66100000Y-110000000D01*
X61300000Y-110000000D02*
X65200000Y-110000000D01*
X65200000Y-110775000D01*
X61300000Y-110775000D01*
X61300000Y-110000000D01*
M02*
