%TF.GenerationSoftware,KiCad,Pcbnew,8.0.8*%
%TF.CreationDate,2026-02-11T18:54:28+05:30*%
%TF.ProjectId,Final_Integration,46696e61-6c5f-4496-9e74-656772617469,rev?*%
%TF.SameCoordinates,Original*%
%TF.FileFunction,Soldermask,Bot*%
%TF.FilePolarity,Negative*%
%FSLAX46Y46*%
G04 Gerber Fmt 4.6, Leading zero omitted, Abs format (unit mm)*
G04 Created by KiCad (PCBNEW 8.0.8) date 2026-02-11 18:54:28*
%MOMM*%
%LPD*%
G01*
G04 APERTURE LIST*
G04 Aperture macros list*
%AMRoundRect*
0 Rectangle with rounded corners*
0 $1 Rounding radius*
0 $2 $3 $4 $5 $6 $7 $8 $9 X,Y pos of 4 corners*
0 Add a 4 corners polygon primitive as box body*
4,1,4,$2,$3,$4,$5,$6,$7,$8,$9,$2,$3,0*
0 Add four circle primitives for the rounded corners*
1,1,$1+$1,$2,$3*
1,1,$1+$1,$4,$5*
1,1,$1+$1,$6,$7*
1,1,$1+$1,$8,$9*
0 Add four rect primitives between the rounded corners*
20,1,$1+$1,$2,$3,$4,$5,0*
20,1,$1+$1,$4,$5,$6,$7,0*
20,1,$1+$1,$6,$7,$8,$9,0*
20,1,$1+$1,$8,$9,$2,$3,0*%
G04 Aperture macros list end*
%ADD10C,6.404000*%
%ADD11RoundRect,0.102000X0.685000X0.685000X-0.685000X0.685000X-0.685000X-0.685000X0.685000X-0.685000X0*%
%ADD12C,1.574000*%
%ADD13RoundRect,0.102000X-0.762000X-0.762000X0.762000X-0.762000X0.762000X0.762000X-0.762000X0.762000X0*%
%ADD14C,1.728000*%
%ADD15C,2.134400*%
%ADD16C,4.204000*%
%ADD17RoundRect,0.102000X1.858000X-1.858000X1.858000X1.858000X-1.858000X1.858000X-1.858000X-1.858000X0*%
%ADD18C,3.920000*%
%ADD19O,2.804000X1.504000*%
%ADD20C,4.000000*%
%ADD21C,1.600000*%
%ADD22RoundRect,0.250000X0.475000X-0.337500X0.475000X0.337500X-0.475000X0.337500X-0.475000X-0.337500X0*%
G04 APERTURE END LIST*
D10*
%TO.C,*%
X121955000Y-114755000D03*
%TD*%
%TO.C,*%
X63955000Y-163725000D03*
%TD*%
D11*
%TO.C,J1*%
X105145000Y-165155000D03*
D12*
X102605000Y-165155000D03*
X100065000Y-165155000D03*
X97525000Y-165155000D03*
X94985000Y-165155000D03*
X92445000Y-165155000D03*
X89905000Y-165155000D03*
X87365000Y-165155000D03*
%TD*%
D10*
%TO.C,*%
X63925000Y-114705000D03*
%TD*%
%TO.C,*%
X121945000Y-163705000D03*
%TD*%
D13*
%TO.C,J2*%
X68785000Y-116055000D03*
D14*
X68785000Y-113515000D03*
X71325000Y-116055000D03*
X71325000Y-113515000D03*
X73865000Y-116055000D03*
X73865000Y-113515000D03*
X76405000Y-116055000D03*
X76405000Y-113515000D03*
X78945000Y-116055000D03*
X78945000Y-113515000D03*
X81485000Y-116055000D03*
X81485000Y-113515000D03*
X84025000Y-116055000D03*
X84025000Y-113515000D03*
X86565000Y-116055000D03*
X86565000Y-113515000D03*
X89105000Y-116055000D03*
X89105000Y-113515000D03*
X91645000Y-116055000D03*
X91645000Y-113515000D03*
X94185000Y-116055000D03*
X94185000Y-113515000D03*
X96725000Y-116055000D03*
X96725000Y-113515000D03*
X99265000Y-116055000D03*
X99265000Y-113515000D03*
X101805000Y-116055000D03*
X101805000Y-113515000D03*
X104345000Y-116055000D03*
X104345000Y-113515000D03*
X106885000Y-116055000D03*
X106885000Y-113515000D03*
X109425000Y-116055000D03*
X109425000Y-113515000D03*
X111965000Y-116055000D03*
X111965000Y-113515000D03*
X114505000Y-116055000D03*
X114505000Y-113515000D03*
X117045000Y-116055000D03*
X117045000Y-113515000D03*
%TD*%
%TO.C,A1*%
X117528750Y-149925000D03*
X87048750Y-134685000D03*
X76888750Y-139765000D03*
X120068750Y-149925000D03*
X120068750Y-134685000D03*
X117528750Y-134685000D03*
X114988750Y-134685000D03*
X112448750Y-134685000D03*
X109908750Y-134685000D03*
X107368750Y-134685000D03*
X104828750Y-134685000D03*
X102288750Y-134685000D03*
X99748750Y-134685000D03*
X97208750Y-134685000D03*
X94668750Y-134685000D03*
X92128750Y-134685000D03*
X89588750Y-134685000D03*
X89588750Y-149925000D03*
X92128750Y-149925000D03*
X94668750Y-149925000D03*
X97208750Y-149925000D03*
X99748750Y-149925000D03*
X102288750Y-149925000D03*
X104828750Y-149925000D03*
X107368750Y-149925000D03*
X109908750Y-149925000D03*
X112448750Y-149925000D03*
X114988750Y-149925000D03*
X84508750Y-134685000D03*
X81968750Y-134685000D03*
X79428750Y-134685000D03*
X76888750Y-134685000D03*
X74348750Y-134685000D03*
X71808750Y-134685000D03*
X69268750Y-134685000D03*
X66728750Y-134685000D03*
X64188750Y-134685000D03*
X64188750Y-149925000D03*
X66728750Y-149925000D03*
X69268750Y-149925000D03*
X71808750Y-149925000D03*
X74348750Y-149925000D03*
X76888750Y-149925000D03*
X79428750Y-149925000D03*
X81968750Y-149925000D03*
X84508750Y-149925000D03*
X122608750Y-134685000D03*
X87048750Y-149925000D03*
X76888750Y-137225000D03*
X122608750Y-149925000D03*
%TD*%
D15*
%TO.C,U1*%
X127335000Y-140660000D03*
X127335000Y-143200000D03*
X127335000Y-145740000D03*
X127335000Y-148280000D03*
X127335000Y-150820000D03*
X127335000Y-153360000D03*
X145115000Y-150820000D03*
X145115000Y-148280000D03*
X145115000Y-145740000D03*
X145115000Y-143200000D03*
D16*
X128605000Y-136215000D03*
X128605000Y-157805000D03*
X143845000Y-157805000D03*
X143845000Y-136215000D03*
%TD*%
D10*
%TO.C,*%
X121950000Y-55310000D03*
%TD*%
D17*
%TO.C,J4*%
X126155000Y-86619250D03*
D18*
X126155000Y-93819250D03*
D19*
X132155000Y-96969250D03*
X132155000Y-83469250D03*
%TD*%
D10*
%TO.C,*%
X63950000Y-104280000D03*
%TD*%
D20*
%TO.C,P1*%
X111690000Y-94270000D03*
X80300000Y-77550000D03*
D21*
X75700000Y-94810000D03*
X75800000Y-76470000D03*
X116390000Y-76340000D03*
X116240000Y-94810000D03*
%TD*%
D10*
%TO.C,*%
X121950000Y-104290000D03*
%TD*%
D11*
%TO.C,J6*%
X105160000Y-105690000D03*
D12*
X102620000Y-105690000D03*
X100080000Y-105690000D03*
X97540000Y-105690000D03*
X95000000Y-105690000D03*
X92460000Y-105690000D03*
X89920000Y-105690000D03*
X87380000Y-105690000D03*
%TD*%
D13*
%TO.C,J3*%
X68800000Y-56600000D03*
D14*
X68800000Y-54060000D03*
X71340000Y-56600000D03*
X71340000Y-54060000D03*
X73880000Y-56600000D03*
X73880000Y-54060000D03*
X76420000Y-56600000D03*
X76420000Y-54060000D03*
X78960000Y-56600000D03*
X78960000Y-54060000D03*
X81500000Y-56600000D03*
X81500000Y-54060000D03*
X84040000Y-56600000D03*
X84040000Y-54060000D03*
X86580000Y-56600000D03*
X86580000Y-54060000D03*
X89120000Y-56600000D03*
X89120000Y-54060000D03*
X91660000Y-56600000D03*
X91660000Y-54060000D03*
X94200000Y-56600000D03*
X94200000Y-54060000D03*
X96740000Y-56600000D03*
X96740000Y-54060000D03*
X99280000Y-56600000D03*
X99280000Y-54060000D03*
X101820000Y-56600000D03*
X101820000Y-54060000D03*
X104360000Y-56600000D03*
X104360000Y-54060000D03*
X106900000Y-56600000D03*
X106900000Y-54060000D03*
X109440000Y-56600000D03*
X109440000Y-54060000D03*
X111980000Y-56600000D03*
X111980000Y-54060000D03*
X114520000Y-56600000D03*
X114520000Y-54060000D03*
X117060000Y-56600000D03*
X117060000Y-54060000D03*
%TD*%
D10*
%TO.C,*%
X63940000Y-55260000D03*
%TD*%
D22*
%TO.C,C*%
X75300000Y-86837500D03*
X75300000Y-84762500D03*
%TD*%
M02*
