M48
; DRILL file {KiCad 8.0.8} date 2026-02-11T18:54:31+0530
; FORMAT={-:-/ absolute / metric / decimal}
; #@! TF.CreationDate,2026-02-11T18:54:31+05:30
; #@! TF.GenerationSoftware,Kicad,Pcbnew,8.0.8
; #@! TF.FileFunction,Plated,1,2,PTH
FMAT,2
METRIC
; #@! TA.AperFunction,Plated,PTH,ViaDrill
T1C0.300
; #@! TA.AperFunction,Plated,PTH,ComponentDrill
T2C0.600
; #@! TA.AperFunction,Plated,PTH,ComponentDrill
T3C1.000
; #@! TA.AperFunction,Plated,PTH,ComponentDrill
T4C1.016
; #@! TA.AperFunction,Plated,PTH,ComponentDrill
T5C1.020
; #@! TA.AperFunction,Plated,PTH,ComponentDrill
T6C2.500
; #@! TA.AperFunction,Plated,PTH,ComponentDrill
T7C2.700
; #@! TA.AperFunction,Plated,PTH,ComponentDrill
T8C2.750
; #@! TA.AperFunction,Plated,PTH,ComponentDrill
T9C3.000
%
G90
G05
T1
X82.755Y-126.705
X82.755Y-128.705
X82.955Y-122.705
X82.955Y-124.705
X95.155Y-124.105
X95.155Y-124.905
X95.355Y-123.105
X95.755Y-122.305
X98.783Y-121.777
X102.555Y-144.305
X107.455Y-153.355
X112.555Y-152.505
X115.755Y-122.705
X116.955Y-152.505
X117.529Y-144.479
X136.425Y-68.9
T3
X75.7Y-94.81
X75.8Y-76.47
X116.24Y-94.81
X116.39Y-76.34
X127.335Y-140.66
X127.335Y-143.2
X127.335Y-145.74
X127.335Y-148.28
X127.335Y-150.82
X127.335Y-153.36
X145.115Y-143.2
X145.115Y-145.74
X145.115Y-148.28
X145.115Y-150.82
T4
X64.189Y-134.685
X64.189Y-149.925
X66.729Y-134.685
X66.729Y-149.925
X68.785Y-113.515
X68.785Y-116.055
X68.8Y-54.06
X68.8Y-56.6
X69.269Y-134.685
X69.269Y-149.925
X71.325Y-113.515
X71.325Y-116.055
X71.34Y-54.06
X71.34Y-56.6
X71.809Y-134.685
X71.809Y-149.925
X73.865Y-113.515
X73.865Y-116.055
X73.88Y-54.06
X73.88Y-56.6
X74.349Y-134.685
X74.349Y-149.925
X76.405Y-113.515
X76.405Y-116.055
X76.42Y-54.06
X76.42Y-56.6
X76.889Y-134.685
X76.889Y-137.225
X76.889Y-139.765
X76.889Y-149.925
X78.945Y-113.515
X78.945Y-116.055
X78.96Y-54.06
X78.96Y-56.6
X79.429Y-134.685
X79.429Y-149.925
X81.485Y-113.515
X81.485Y-116.055
X81.5Y-54.06
X81.5Y-56.6
X81.969Y-134.685
X81.969Y-149.925
X84.025Y-113.515
X84.025Y-116.055
X84.04Y-54.06
X84.04Y-56.6
X84.509Y-134.685
X84.509Y-149.925
X86.565Y-113.515
X86.565Y-116.055
X86.58Y-54.06
X86.58Y-56.6
X87.049Y-134.685
X87.049Y-149.925
X89.105Y-113.515
X89.105Y-116.055
X89.12Y-54.06
X89.12Y-56.6
X89.589Y-134.685
X89.589Y-149.925
X91.645Y-113.515
X91.645Y-116.055
X91.66Y-54.06
X91.66Y-56.6
X92.129Y-134.685
X92.129Y-149.925
X94.185Y-113.515
X94.185Y-116.055
X94.2Y-54.06
X94.2Y-56.6
X94.669Y-134.685
X94.669Y-149.925
X96.725Y-113.515
X96.725Y-116.055
X96.74Y-54.06
X96.74Y-56.6
X97.209Y-134.685
X97.209Y-149.925
X99.265Y-113.515
X99.265Y-116.055
X99.28Y-54.06
X99.28Y-56.6
X99.749Y-134.685
X99.749Y-149.925
X101.805Y-113.515
X101.805Y-116.055
X101.82Y-54.06
X101.82Y-56.6
X102.289Y-134.685
X102.289Y-149.925
X104.345Y-113.515
X104.345Y-116.055
X104.36Y-54.06
X104.36Y-56.6
X104.829Y-134.685
X104.829Y-149.925
X106.885Y-113.515
X106.885Y-116.055
X106.9Y-54.06
X106.9Y-56.6
X107.369Y-134.685
X107.369Y-149.925
X109.425Y-113.515
X109.425Y-116.055
X109.44Y-54.06
X109.44Y-56.6
X109.909Y-134.685
X109.909Y-149.925
X111.965Y-113.515
X111.965Y-116.055
X111.98Y-54.06
X111.98Y-56.6
X112.449Y-134.685
X112.449Y-149.925
X114.505Y-113.515
X114.505Y-116.055
X114.52Y-54.06
X114.52Y-56.6
X114.989Y-134.685
X114.989Y-149.925
X117.045Y-113.515
X117.045Y-116.055
X117.06Y-54.06
X117.06Y-56.6
X117.529Y-134.685
X117.529Y-149.925
X120.069Y-134.685
X120.069Y-149.925
X122.609Y-134.685
X122.609Y-149.925
T5
X87.365Y-165.155
X87.38Y-105.69
X89.905Y-165.155
X89.92Y-105.69
X92.445Y-165.155
X92.46Y-105.69
X94.985Y-165.155
X95.0Y-105.69
X97.525Y-165.155
X97.54Y-105.69
X100.065Y-165.155
X100.08Y-105.69
X102.605Y-165.155
X102.62Y-105.69
X105.145Y-165.155
X105.16Y-105.69
T6
X128.605Y-136.215
X128.605Y-157.805
X143.845Y-136.215
X143.845Y-157.805
T7
X126.155Y-86.619
X126.155Y-93.819
T8
X63.925Y-114.705
X63.94Y-55.26
X63.95Y-104.28
X63.955Y-163.725
X121.945Y-163.705
X121.95Y-55.31
X121.95Y-104.29
X121.955Y-114.755
T9
X80.3Y-77.55
X111.69Y-94.27
T2
G00X131.605Y-83.469
M15
G01X132.705Y-83.469
M16
G05
G00X131.605Y-96.969
M15
G01X132.705Y-96.969
M16
G05
M30
